<svg id="Icons" xmlns="http://www.w3.org/2000/svg" viewBox="0 0 512 512"><defs><style>.cls-1{fill:#8d00af;}.cls-2{fill:#aa0dd1;}.cls-3{fill:#e52e44;}.cls-4{fill:#fa4654;}.cls-5{fill:#fb626e;}.cls-6{fill:#aacfe5;}.cls-7{fill:#cde6f6;}.cls-8{fill:#eef9ff;}.cls-9{fill:#f39e22;}.cls-10{fill:#f9c744;}.cls-11{fill:#fff;}</style></defs><title>019-beer-export</title><circle class="cls-1" cx="256" cy="256" r="256"/><circle class="cls-2" cx="256" cy="256" r="189.12"/><path class="cls-3" d="M436,285.34,277,444.29a29.74,29.74,0,0,1-42.08,0L103.05,312.39,76,285.34A108.14,108.14,0,1,1,229,132.4l27,27,27-27A108.14,108.14,0,0,1,436,285.34Z"/><path class="cls-4" d="M436,285.34,307.22,414.11a29.74,29.74,0,0,1-42.08,0l-131.9-131.9-27-27A108.19,108.19,0,0,1,92.6,118.79,108.22,108.22,0,0,1,229,132.4l27,27,27-27A108.14,108.14,0,0,1,436,285.34Z"/><ellipse class="cls-5" cx="393.69" cy="151.61" rx="27.44" ry="45.36" transform="translate(37.43 377.56) rotate(-53.45)"/><ellipse class="cls-5" cx="436.86" cy="217.85" rx="17.33" ry="28.66" transform="translate(-27.26 66.52) rotate(-8.45)"/><path class="cls-6" d="M365.53,243.9v61.87a12.07,12.07,0,0,1-12.08,12.07H315.69v-16h28.69a5.16,5.16,0,0,0,5.17-5.17V253a5.16,5.16,0,0,0-5.17-5.17H315.69v-16h37.76A12.08,12.08,0,0,1,365.53,243.9Z"/><path class="cls-7" d="M365.53,243.9v55.18a12.08,12.08,0,0,1-12.08,12.08H330a3.64,3.64,0,0,1-3.64-3.65v-2a3.64,3.64,0,0,1,3.64-3.64h19.73a5.18,5.18,0,0,0,5.17-5.17V246.28a5.17,5.17,0,0,0-5.17-5.17H330a3.64,3.64,0,0,1-3.64-3.64v-2a3.65,3.65,0,0,1,3.64-3.65h23.47A12.08,12.08,0,0,1,365.53,243.9Z"/><ellipse class="cls-8" cx="360.96" cy="255.12" rx="4.57" ry="10.06"/><ellipse class="cls-8" cx="360.96" cy="275.26" rx="3.17" ry="6.98"/><path class="cls-6" d="M315.69,207.68V355.46a11.05,11.05,0,0,1-11.05,11.05H191.39a11.06,11.06,0,0,1-11.06-11.05V207.68a11,11,0,0,1,11.06-11.05H304.64A11,11,0,0,1,315.69,207.68Z"/><path class="cls-7" d="M315.69,207.68V355.46a11.05,11.05,0,0,1-11.05,11.05H203.58a11.05,11.05,0,0,1-11.05-11.05V207.68a11,11,0,0,1,11.05-11.05H304.64A11,11,0,0,1,315.69,207.68Z"/><rect class="cls-8" x="303.49" y="210.41" width="12.2" height="49.67" rx="6.1"/><rect class="cls-8" x="303.49" y="270.46" width="12.2" height="31.12" rx="6.1"/><path class="cls-9" d="M192.53,196.63h111a0,0,0,0,1,0,0V336.85a13.27,13.27,0,0,1-13.27,13.27H205.8a13.27,13.27,0,0,1-13.27-13.27V196.63A0,0,0,0,1,192.53,196.63Z"/><ellipse class="cls-10" cx="283.59" cy="240.37" rx="13.06" ry="23.04"/><ellipse class="cls-10" cx="283.59" cy="284.83" rx="8.14" ry="14.37"/><path class="cls-11" d="M303.49,196.62h-111a15.23,15.23,0,0,1,20.58-14.28,15.25,15.25,0,0,1,30.37-.33,23.67,23.67,0,0,1,26.46-1.75,11.8,11.8,0,0,1,23.55,1.11,11.65,11.65,0,0,1-.53,3.51A11.81,11.81,0,0,1,303.49,196.62Z"/><circle class="cls-11" cx="244.28" cy="245.11" r="7.82"/><circle class="cls-11" cx="258.9" cy="272.28" r="10.11"/><circle class="cls-11" cx="279.13" cy="200.3" r="10.11"/><circle class="cls-11" cx="240.49" cy="292.6" r="6.58"/><circle class="cls-11" cx="220.97" cy="327.64" r="6.58"/><circle class="cls-11" cx="263.92" cy="317.84" r="8.47"/><circle class="cls-11" cx="262.43" cy="223.92" r="6.58"/><path class="cls-11" d="M213.08,303.51h0a7.89,7.89,0,0,1-7.89-7.89v-99H221v99A7.89,7.89,0,0,1,213.08,303.51Z"/><path class="cls-11" d="M228.5,196.63h15.78a0,0,0,0,1,0,0v23.7a7.89,7.89,0,0,1-7.89,7.89h0a7.89,7.89,0,0,1-7.89-7.89v-23.7a0,0,0,0,1,0,0Z"/></svg>